<svg xmlns="http://www.w3.org/2000/svg" width="493.957" height="419.753" viewBox="0 0 493.957 419.753">
  <defs>
    <style>
      .cls-1 {
        fill: #6277d7;
      }

      .cls-2 {
        fill: #d2dcff;
      }

      .cls-3 {
        fill: #fe9ecc;
      }

      .cls-4 {
        fill: #ffd9e8;
      }

      .cls-5 {
        fill: #aec3ff;
      }

      .cls-6 {
        fill: #86a2e2;
      }

      .cls-7 {
        fill: #fcbeb7;
      }

      .cls-8 {
        fill: #311643;
      }

      .cls-9 {
        fill: #f49795;
      }

      .cls-10 {
        fill: none;
      }

      .cls-11 {
        fill: #fff;
      }

      .cls-12 {
        fill: #f9afab;
      }

      .cls-13 {
        fill: #ebedf4;
      }

      .cls-14 {
        fill: #2f3d6c;
      }

      .cls-15 {
        fill: #89aeff;
      }

      .cls-16 {
        fill: #4a5ea3;
      }

      .cls-17 {
        fill: #4a62d3;
      }

      .cls-18 {
        fill: #ff78ba;
      }
    </style>
  </defs>
  <g id="Group_172" data-name="Group 172" transform="translate(-485.057 -3194.729)">
    <g id="Group_147" data-name="Group 147">
      <path id="Path_411" data-name="Path 411" class="cls-1" d="M753.738,3465.576v-1.383a.775.775,0,0,0-.774-.774H720.886a2.931,2.931,0,0,0-2.93,2.931h0v2.357h0a2.93,2.93,0,0,0,2.93,2.93h32.078a.774.774,0,0,0,.774-.774v-1.382a.774.774,0,0,0-.774-.774h-30.9a1.179,1.179,0,0,1-1.179-1.179h0a1.178,1.178,0,0,1,1.179-1.178h30.9A.775.775,0,0,0,753.738,3465.576Z"/>
      <path id="Path_412" data-name="Path 412" class="cls-2" d="M752.352,3466.35v2.357H722.065a1.179,1.179,0,0,1-1.179-1.179h0a1.178,1.178,0,0,1,1.179-1.178Z"/>
      <path id="Path_413" data-name="Path 413" class="cls-3" d="M751.446,3457.357v-1.382a.774.774,0,0,0-.774-.774H723.178a2.93,2.93,0,0,0-2.93,2.93h0v2.357h0a2.93,2.93,0,0,0,2.93,2.931h27.494a.775.775,0,0,0,.774-.774v-1.383a.775.775,0,0,0-.774-.774H724.357a1.178,1.178,0,0,1-1.179-1.178h0a1.179,1.179,0,0,1,1.179-1.179h26.315A.774.774,0,0,0,751.446,3457.357Z"/>
      <path id="Path_414" data-name="Path 414" class="cls-4" d="M750.427,3458.131v2.357h-26.07a1.178,1.178,0,0,1-1.179-1.178h0a1.179,1.179,0,0,1,1.179-1.179Z"/>
      <path id="Path_415" data-name="Path 415" class="cls-2" d="M728.142,3477.061l-17,137.422H707.77l17-137.422Z"/>
      <path id="Path_416" data-name="Path 416" class="cls-2" d="M772.8,3614.483h-3.375l-14.541-117.567-2.456-19.855h3.375l2.421,19.574Z"/>
      <path id="Path_417" data-name="Path 417" class="cls-2" d="M558.9,3477.061l-4.547,36.767L541.9,3614.483h-3.375l12.414-100.368,4.583-37.054Z"/>
      <path id="Path_418" data-name="Path 418" class="cls-2" d="M603.562,3614.483h-3.375l-12.794-103.441-4.2-33.981h3.375l4.168,33.7Z"/>
      <path id="Path_419" data-name="Path 419" class="cls-5" d="M555.526,3477.061H558.9l-4.547,36.767-3.411.288Z"/>
      <path id="Path_420" data-name="Path 420" class="cls-5" d="M586.565,3477.061l4.168,33.7-3.34.282-4.2-33.981Z"/>
      <path id="Path_421" data-name="Path 421" class="cls-5" d="M758.227,3496.634l-3.34.282-2.456-19.855h3.375Z"/>
      <path id="Rectangle_151" data-name="Rectangle 151" class="cls-2" d="M0,0H172.565a2.256,2.256,0,0,1,2.256,2.256v.911a2.256,2.256,0,0,1-2.256,2.256H0a0,0,0,0,1,0,0V0A0,0,0,0,1,0,0Z" transform="translate(592.639 3471.637)"/>
      <path id="Rectangle_152" data-name="Rectangle 152" class="cls-6" d="M2.256,0H47.915a0,0,0,0,1,0,0V5.423a0,0,0,0,1,0,0H2.256A2.256,2.256,0,0,1,0,3.167V2.256A2.256,2.256,0,0,1,2.256,0Z" transform="translate(544.724 3471.637)"/>
      <path id="Path_422" data-name="Path 422" class="cls-2" d="M592.6,3458.45h15.137a1.245,1.245,0,0,1,1.237,1.393l-1.281,10.7a1.244,1.244,0,0,1-1.236,1.1H593.882a1.245,1.245,0,0,1-1.237-1.1l-1.28-10.7A1.245,1.245,0,0,1,592.6,3458.45Z"/>
      <path id="Path_423" data-name="Path 423" class="cls-1" d="M605.366,3454.085v-4.864l-2.91,5.529v-8.979l-2.286,5.654-2.286-5.654v8.979l-2.91-5.529v4.864l-4.24-6.818,1.868,11.183h15.137l1.868-11.183Z"/>
      <path id="Path_424" data-name="Path 424" class="cls-2" d="M714.526,3457.744h-94.7l10.558-56.915h94.7Z"/>
      <path id="Path_425" data-name="Path 425" class="cls-6" d="M666.712,3432.606h10.636l14,39.031h-18.58Z"/>
      <rect id="Rectangle_153" data-name="Rectangle 153" class="cls-6" width="33.695" height="2.506" rx="1.043" transform="translate(633.676 3469.132)"/>
      <path id="Path_426" data-name="Path 426" class="cls-5" d="M666.712,3432.606v25.138h3.9Z"/>
    </g>
    <g id="Group_158" data-name="Group 158">
      <g id="Group_149" data-name="Group 149">
        <path id="Path_427" data-name="Path 427" class="cls-2" d="M814.149,3529.56l10.244,84.923h3.359l-10.243-84.923Z"/>
        <path id="Path_428" data-name="Path 428" class="cls-2" d="M859.416,3529.559l1.152,9.551,9.091,75.373h3.36l-9.136-75.746-1.107-9.178Z"/>
        <path id="Path_429" data-name="Path 429" class="cls-2" d="M814.149,3614.482h3.36l1.416-11.745,1.68-13.926L826.131,3543l1.622-13.446h-3.36l-1.668,13.83-3.8,31.495-1.68,13.926Z"/>
        <path id="Path_430" data-name="Path 430" class="cls-2" d="M768.882,3614.482h3.36l7.95-65.916h0l2.292-19.008h-3.36l-2.337,19.375Z"/>
        <g id="Group_148" data-name="Group 148">
          <rect id="Rectangle_154" data-name="Rectangle 154" class="cls-2" width="3.36" height="51.37" transform="translate(859.253 3472.79)"/>
          <rect id="Rectangle_155" data-name="Rectangle 155" class="cls-2" width="3.359" height="51.37" transform="translate(813.601 3472.79)"/>
        </g>
        <path id="Path_431" data-name="Path 431" class="cls-2" d="M777.715,3524.16h46.159a2.7,2.7,0,0,0-2.7,2.7h0a2.7,2.7,0,0,0,2.7,2.7H777.715a2.7,2.7,0,0,1-2.7-2.7h0A2.7,2.7,0,0,1,777.715,3524.16Z"/>
        <path id="Path_432" data-name="Path 432" class="cls-6" d="M821.175,3526.859h0a2.7,2.7,0,0,1,2.7-2.7h39.855a2.7,2.7,0,0,1,2.7,2.7h0a2.7,2.7,0,0,1-2.7,2.7H823.874A2.7,2.7,0,0,1,821.175,3526.859Z"/>
        <rect id="Rectangle_156" data-name="Rectangle 156" class="cls-2" width="62.026" height="38.659" rx="3.763" transform="translate(807.093 3434.131)"/>
        <path id="Path_433" data-name="Path 433" class="cls-5" d="M859.416,3529.559l1.153,9.551,3.314-.374-1.107-9.177Z"/>
        <path id="Path_434" data-name="Path 434" class="cls-5" d="M824.392,3529.559l-1.668,13.829,3.407-.384,1.621-13.445Z"/>
        <path id="Path_435" data-name="Path 435" class="cls-5" d="M776.789,3548.934l3.4-.367h0l2.292-19.008h-3.36Z"/>
        <path id="Path_436" data-name="Path 436" class="cls-5" d="M862.612,3472.79h-3.36v7.095l3.36-.372Z"/>
        <path id="Path_437" data-name="Path 437" class="cls-5" d="M813.6,3472.79v12.148l3.359-.372V3472.79Z"/>
      </g>
      <g id="Group_157" data-name="Group 157">
        <g id="Group_155" data-name="Group 155">
          <g id="Group_150" data-name="Group 150">
            <path id="Path_438" data-name="Path 438" class="cls-7" d="M795.409,3392.431c1.247,15.132,12.24,24.617,18.691,24.617a11.959,11.959,0,0,0,3.122-.475v7.547h16.362v-19.188c.151-.4.3-.837.441-1.307,7.254-.693,6.953-12.681,2.643-12.681-.784,0-1.308.741-1.638,1.488l-1.07,1.07v-5.416s-2.408.225-7.147-7c-2.045,3.1-18.355,7.974-31.445,5.792C795.368,3386.882,795.334,3389.576,795.409,3392.431Z"/>
          </g>
          <path id="Path_439" data-name="Path 439" class="cls-8" d="M815.228,3366.345c11.284,0,13.541,6.018,13.541,6.018,4.815,0,12.187,8.8,7.749,18.581l-.023.023-2.535,2.535v-5.416s-2.408.225-7.147-7c-2.045,3.1-18.355,7.974-31.445,5.792,0,0-.034,2.694.041,5.549v.009C790.52,3378.3,800.333,3366.345,815.228,3366.345Z"/>
          <g id="Group_151" data-name="Group 151">
            <path id="Path_440" data-name="Path 440" class="cls-8" d="M820.08,3396.562a.9.9,0,0,0,.9-.9v-1.686a.9.9,0,1,0-1.8,0v1.686A.9.9,0,0,0,820.08,3396.562Z"/>
          </g>
          <g id="Group_152" data-name="Group 152">
            <path id="Path_441" data-name="Path 441" class="cls-8" d="M803.342,3396.562a.9.9,0,0,0,.9-.9v-1.686a.9.9,0,0,0-1.806,0v1.686A.9.9,0,0,0,803.342,3396.562Z"/>
          </g>
          <g id="Group_153" data-name="Group 153">
            <path id="Path_442" data-name="Path 442" class="cls-8" d="M813.443,3407.1a5.159,5.159,0,0,0,3.373-1.158,4.608,4.608,0,0,0,1.2-1.487.414.414,0,0,0-.754-.341h0a4.219,4.219,0,0,1-4.516,2.118.414.414,0,1,0-.1.822A6.869,6.869,0,0,0,813.443,3407.1Z"/>
          </g>
          <circle id="Ellipse_55" data-name="Ellipse 55" class="cls-9" cx="4.464" cy="4.464" r="4.464" transform="translate(821.61 3395.119)"/>
          <path id="Path_443" data-name="Path 443" class="cls-9" d="M795.874,3395.877a31.794,31.794,0,0,0,2.712,8.164,4.464,4.464,0,1,0-2.712-8.164Z"/>
          <g id="Group_154" data-name="Group 154">
            <circle id="Ellipse_56" data-name="Ellipse 56" class="cls-10" cx="5.498" cy="5.498" r="5.498" transform="translate(814.582 3386.835)"/>
            <circle id="Ellipse_57" data-name="Ellipse 57" class="cls-10" cx="5.498" cy="5.498" r="5.498" transform="matrix(0.16, -0.987, 0.987, 0.16, 797.034, 3396.879)"/>
            <path id="Path_444" data-name="Path 444" class="cls-11" d="M797.017,3392.333a6.324,6.324,0,0,0,12.644.239,4.132,4.132,0,0,1,4.1-.005,6.316,6.316,0,1,0,.031-.914,4.862,4.862,0,0,0-4.161,0,6.325,6.325,0,0,0-12.614.677Zm17.565,0a5.5,5.5,0,1,1,5.5,5.5A5.5,5.5,0,0,1,814.582,3392.333Zm-16.738,0a5.5,5.5,0,1,1,5.5,5.5A5.5,5.5,0,0,1,797.844,3392.333Z"/>
          </g>
          <path id="Path_445" data-name="Path 445" class="cls-12" d="M817.222,3424.12v-7.547a36.454,36.454,0,0,0,11.078-5.883Z"/>
        </g>
        <path id="Path_446" data-name="Path 446" class="cls-13" d="M770.733,3553.13l3.416-.468,3.235-26.822h-3.36Z"/>
        <path id="Path_447" data-name="Path 447" class="cls-7" d="M852.556,3455.563"/>
        <path id="Path_448" data-name="Path 448" class="cls-7" d="M779.807,3450.631l-2.967,5.688h15.814Z"/>
        <path id="Path_449" data-name="Path 449" class="cls-14" d="M810.1,3599.651V3611.9a2.586,2.586,0,0,1-2.586,2.586H772.777a.6.6,0,0,1-.6-.6v-2.257a2.786,2.786,0,0,1,1.625-2.532l20.085-9.444Z"/>
        <path id="Path_450" data-name="Path 450" class="cls-7" d="M810.1,3592.684l-.008,6.967h-16.2l-1.12-6.967Z"/>
        <path id="Path_451" data-name="Path 451" class="cls-15" d="M817.25,3417l-21.993,9.935a14.422,14.422,0,0,0-6.967,6.7l-8.483,16.992,12.847,5.688-1.064,37.56h64.019l-2.795-35.079,11.578.075v-19.193a14.734,14.734,0,0,0-9.058-13.6L833.583,3417S824.081,3423.238,817.25,3417Z"/>
        <g id="Group_156" data-name="Group 156">
          <path id="Path_452" data-name="Path 452" class="cls-11" d="M811.987,3419.287a19.188,19.188,0,0,0,12.4,4.493,19.871,19.871,0,0,0,13.139-5.134l-.7-.292a19.052,19.052,0,0,1-12.439,4.764,18.535,18.535,0,0,1-11.713-4.127Z"/>
        </g>
        <path id="Path_453" data-name="Path 453" class="cls-14" d="M776.01,3599.651V3611.9a2.585,2.585,0,0,1-2.585,2.586H738.691a.6.6,0,0,1-.6-.6v-2.257a2.785,2.785,0,0,1,1.626-2.532l20.084-9.444Z"/>
        <path id="Path_454" data-name="Path 454" class="cls-7" d="M776.01,3592.684l-.008,6.967H759.8l-1.12-6.967Z"/>
        <path id="Path_455" data-name="Path 455" class="cls-1" d="M821.525,3493.879v.655a29.771,29.771,0,0,1-29.772,29.794h-13.83l-1.914,68.356H758.682l-12.777-81.5a14.982,14.982,0,0,1,14.8-17.3Z"/>
        <path id="Path_456" data-name="Path 456" class="cls-16" d="M745.721,3508.9a8.294,8.294,0,1,0,7.39-12.954A15,15,0,0,0,745.721,3508.9Z"/>
        <path id="Path_457" data-name="Path 457" class="cls-16" d="M779.809,3508.577l-1.885,15.751h11.347Z"/>
        <path id="Path_458" data-name="Path 458" class="cls-1" d="M855.612,3493.879v.655a29.771,29.771,0,0,1-29.771,29.794H812.01l-1.913,68.356H792.768l-12.777-81.5a14.982,14.982,0,0,1,14.8-17.3Z"/>
        <path id="Path_459" data-name="Path 459" class="cls-7" d="M864.392,3458.875l-.616,21.273a10.631,10.631,0,0,1-10.627,10.324H816.118l-2.486-8.661,32.664-5.384.231-17.668Z"/>
        <path id="Path_460" data-name="Path 460" class="cls-12" d="M853.41,3486.048a5.479,5.479,0,0,0,1.947,4.194,10.643,10.643,0,0,0,7.995-7.409,5.49,5.49,0,0,0-9.942,3.215Z"/>
        <path id="Path_461" data-name="Path 461" class="cls-17" d="M846.527,3458.76l-5.015,18.456,4.784-.789.231-17.668"/>
        <path id="Path_462" data-name="Path 462" class="cls-12" d="M818.2,3481.059l5.838,9.413h-7.915l-2.486-8.661Z"/>
        <path id="Path_463" data-name="Path 463" class="cls-16" d="M754.562,3456.319h48.286a4.6,4.6,0,0,1,4.422,3.331l8.848,30.822H835.7a1.7,1.7,0,1,1,0,3.407h-76.46l-9.1-31.69A4.6,4.6,0,0,1,754.562,3456.319Z"/>
        <path id="Path_464" data-name="Path 464" class="cls-16" d="M779.809,3508.577a8.294,8.294,0,1,0,7.406-12.646A15,15,0,0,0,779.809,3508.577Z"/>
        <ellipse id="Ellipse_58" data-name="Ellipse 58" class="cls-15" cx="1.792" cy="2.616" rx="1.792" ry="2.616" transform="matrix(0.996, -0.088, 0.088, 0.996, 779.067, 3473.87)"/>
        <path id="Path_465" data-name="Path 465" class="cls-17" d="M854.679,3433.9a4.857,4.857,0,0,0,9.241,2.09,14.731,14.731,0,0,0-4.061-6.935c-.107-.008-.215-.011-.323-.011A4.857,4.857,0,0,0,854.679,3433.9Z"/>
        <path id="Path_466" data-name="Path 466" class="cls-17" d="M788.59,3433.07a4.857,4.857,0,0,0,7.009-6.288l-.342.155A14.413,14.413,0,0,0,788.59,3433.07Z"/>
      </g>
    </g>
    <g id="Group_159" data-name="Group 159">
      <rect id="Rectangle_157" data-name="Rectangle 157" class="cls-2" width="47.259" height="47.259" transform="translate(514.71 3567.223)"/>
      <rect id="Rectangle_158" data-name="Rectangle 158" class="cls-5" width="26.033" height="47.259" transform="translate(488.677 3567.223)"/>
      <rect id="Rectangle_159" data-name="Rectangle 159" class="cls-6" width="26.033" height="1.384" transform="translate(488.677 3575.304)"/>
      <rect id="Rectangle_160" data-name="Rectangle 160" class="cls-5" width="47.259" height="1.384" transform="translate(514.71 3575.304)"/>
      <rect id="Rectangle_161" data-name="Rectangle 161" class="cls-6" width="18.585" height="1.23" rx="0.598" transform="translate(529.047 3582.224)"/>
    </g>
    <g id="Group_160" data-name="Group 160">
      <rect id="Rectangle_162" data-name="Rectangle 162" class="cls-16" width="26.839" height="23.258" transform="matrix(0.9, 0.436, -0.436, 0.9, 936.727, 3554.086)"/>
      <rect id="Rectangle_163" data-name="Rectangle 163" class="cls-16" width="26.839" height="23.258" transform="matrix(0.992, -0.125, 0.125, 0.992, 908.736, 3560.547)"/>
      <rect id="Rectangle_164" data-name="Rectangle 164" class="cls-2" width="47.259" height="47.259" transform="translate(922.103 3567.223)"/>
      <rect id="Rectangle_165" data-name="Rectangle 165" class="cls-5" width="26.033" height="47.259" transform="translate(896.071 3567.223)"/>
      <path id="Path_467" data-name="Path 467" class="cls-6" d="M896.071,3567.223l-13.523,14.486H911.92l10.183-14.486Z"/>
      <path id="Path_468" data-name="Path 468" class="cls-5" d="M969.363,3567.223l9.652,14.673h-47.19l-9.721-14.743Z"/>
      <path id="Path_469" data-name="Path 469" class="cls-14" d="M932.129,3557.6l-1.9,9.57,5.135-9.978Z"/>
    </g>
    <g id="Group_162" data-name="Group 162">
      <rect id="Rectangle_166" data-name="Rectangle 166" class="cls-2" width="114.72" height="91.052" rx="6.312" transform="translate(607.049 3194.729)"/>
      <path id="Rectangle_167" data-name="Rectangle 167" class="cls-1" d="M0,0H114.72a0,0,0,0,1,0,0V35.385a6.312,6.312,0,0,1-6.312,6.312H6.312A6.312,6.312,0,0,1,0,35.385V0A0,0,0,0,1,0,0Z" transform="translate(607.049 3269.866)"/>
      <rect id="Rectangle_168" data-name="Rectangle 168" class="cls-2" width="60.744" height="3.414" rx="1.707" transform="translate(624.555 3282.368)"/>
      <rect id="Rectangle_169" data-name="Rectangle 169" class="cls-2" width="33.702" height="3.414" rx="1.707" transform="translate(624.555 3291.677)"/>
      <rect id="Rectangle_170" data-name="Rectangle 170" class="cls-1" width="33.702" height="3.414" rx="1.707" transform="translate(668.447 3230.164)"/>
      <rect id="Rectangle_171" data-name="Rectangle 171" class="cls-1" width="18.698" height="3.414" rx="1.707" transform="translate(668.447 3239.473)"/>
      <g id="Group_161" data-name="Group 161">
        <circle id="Ellipse_59" data-name="Ellipse 59" class="cls-10" cx="14.953" cy="14.953" r="14.953" transform="translate(628.326 3219.713)"/>
        <path id="Path_470" data-name="Path 470" class="cls-15" d="M641.161,3251.737a2.118,2.118,0,0,1,2.119-2.118,14.953,14.953,0,1,1,14.953-14.953,2.118,2.118,0,1,1,4.237,0,19.19,19.19,0,1,0-19.19,19.19A2.119,2.119,0,0,1,641.161,3251.737Z"/>
        <path id="Path_471" data-name="Path 471" class="cls-1" d="M660.351,3232.547a2.119,2.119,0,0,0-2.118,2.119,14.97,14.97,0,0,1-14.953,14.953,2.119,2.119,0,1,0,0,4.237,19.212,19.212,0,0,0,19.19-19.19A2.119,2.119,0,0,0,660.351,3232.547Z"/>
      </g>
    </g>
    <g id="Group_163" data-name="Group 163">
      <path id="Path_472" data-name="Path 472" class="cls-15" d="M747.02,3269.445V3307.8a3.765,3.765,0,0,0,3.765,3.764h60.764a3.764,3.764,0,0,0,3.764-3.764v-38.353Z"/>
      <path id="Path_473" data-name="Path 473" class="cls-2" d="M753.713,3253.83h54.908c2.265,0,4.1,3,4.1,6.7v32.938c0,3.7-1.835,6.7-4.1,6.7H753.713c-2.265,0-4.1-3-4.1-6.7v-32.938C749.613,3256.829,751.448,3253.83,753.713,3253.83Z"/>
      <path id="Path_474" data-name="Path 474" class="cls-1" d="M811.549,3311.562H750.785a3.765,3.765,0,0,1-3.765-3.764v-38.353l34.147,24.991,34.146-24.991V3307.8A3.764,3.764,0,0,1,811.549,3311.562Z"/>
      <rect id="Rectangle_172" data-name="Rectangle 172" class="cls-15" width="33.437" height="3.414" rx="1.707" transform="translate(764.449 3264.707)"/>
      <rect id="Rectangle_173" data-name="Rectangle 173" class="cls-15" width="18.551" height="3.414" rx="1.707" transform="translate(771.891 3272.31)"/>
    </g>
    <g id="Group_171" data-name="Group 171">
      <g id="Group_169" data-name="Group 169">
        <path id="Path_475" data-name="Path 475" class="cls-8" d="M563.678,3310.649c0-10.744-9.475-19.448-23.683-19.448-11.808,0-15.866,6.516-15.866,6.516s-11.16,2.412-11.16,16.281v35.073H560.51v-28.884A14.957,14.957,0,0,0,563.678,3310.649Zm-22.053,31.409a12,12,0,0,1-3.209-.5v7.515H522.19v-19.334c-.111-.311-.22-.642-.326-.991-7.2-.687-6.9-12.577-2.621-12.577a1.174,1.174,0,0,1,.17.014v0c17.97,5.745,30.055-3.667,34.009-10.208,0,4.564,5.051,9.015,6.848,9.42C560,3331.7,548.336,3342.058,541.625,3342.058Z"/>
        <path id="Path_476" data-name="Path 476" class="cls-7" d="M538.416,3343.323v-1.767a12,12,0,0,0,3.209.5c6.711,0,18.379-10.355,18.645-26.665-1.8-.405-6.848-4.856-6.848-9.42-3.954,6.541-16.039,15.953-34.009,10.208v0a1.174,1.174,0,0,0-.17-.014c-4.275,0-4.574,11.89,2.621,12.577.106.349.215.68.326.991v13.006l-12.71,5.99v15.686h42.233v-17.1l-13.3-4Z"/>
        <path id="Path_477" data-name="Path 477" class="cls-12" d="M551.713,3364.419v-17.1l-13.3-4v-1.767a36.8,36.8,0,0,1-11.172-6.029Z"/>
        <circle id="Ellipse_60" data-name="Ellipse 60" class="cls-9" cx="4.427" cy="4.427" r="4.427" transform="translate(525.323 3320.31)"/>
        <path id="Path_478" data-name="Path 478" class="cls-9" d="M559.7,3321.061a31.568,31.568,0,0,1-2.69,8.1,4.427,4.427,0,1,1,2.69-8.1Z"/>
        <g id="Group_164" data-name="Group 164">
          <circle id="Ellipse_61" data-name="Ellipse 61" class="cls-10" cx="5.452" cy="5.452" r="5.452" transform="matrix(0.924, -0.383, 0.383, 0.924, 545.088, 3314.596)"/>
          <circle id="Ellipse_62" data-name="Ellipse 62" class="cls-10" cx="5.452" cy="5.452" r="5.452" transform="translate(528.488 3314.596) rotate(-22.5)"/>
          <path id="Path_479" data-name="Path 479" class="cls-11" d="M552.212,3311.273a6.281,6.281,0,0,0-6.236,5.6,4.823,4.823,0,0,0-4.127,0,6.281,6.281,0,1,0,.031.905,4.056,4.056,0,0,1,4.065.007,6.273,6.273,0,1,0,6.267-6.511ZM535.612,3323a5.453,5.453,0,1,1,5.453-5.452A5.459,5.459,0,0,1,535.612,3323Zm16.6,0a5.453,5.453,0,1,1,5.453-5.452A5.458,5.458,0,0,1,552.212,3323Z"/>
        </g>
        <g id="Group_167" data-name="Group 167">
          <g id="Group_165" data-name="Group 165">
            <path id="Path_480" data-name="Path 480" class="cls-8" d="M552.217,3319.278a.9.9,0,0,1-.9-.9v-1.673a.9.9,0,0,1,1.791,0v1.673A.9.9,0,0,1,552.217,3319.278Z"/>
          </g>
          <g id="Group_166" data-name="Group 166">
            <path id="Path_481" data-name="Path 481" class="cls-8" d="M535.885,3319.278a.9.9,0,0,1-.9-.9v-1.673a.9.9,0,0,1,1.791,0v1.673A.9.9,0,0,1,535.885,3319.278Z"/>
          </g>
        </g>
        <g id="Group_168" data-name="Group 168">
          <path id="Path_482" data-name="Path 482" class="cls-8" d="M542.276,3332.191a5.116,5.116,0,0,1-3.345-1.148,4.545,4.545,0,0,1-1.191-1.475.411.411,0,0,1,.748-.339h0a4.18,4.18,0,0,0,4.478,2.1.411.411,0,1,1,.094.816A6.971,6.971,0,0,1,542.276,3332.191Z"/>
        </g>
      </g>
      <path id="Path_483" data-name="Path 483" class="cls-7" d="M569.036,3592.607l1.679,6.979,18.311,5.75-2.633-12.729Z"/>
      <path id="Path_484" data-name="Path 484" class="cls-7" d="M507.342,3592.607l.5,8.621-1.141.421-.752,3.691,18.293-5.754.457-6.979Z"/>
      <path id="Path_485" data-name="Path 485" class="cls-14" d="M603.15,3608.046l-14.886-6.4.763,3.689-18.311-5.75v5.246a5.246,5.246,0,0,0,2.481,4.458l1.575,4.5a.97.97,0,0,0,1.886-.32v-2.929l12.515,3.9h12.66a3.333,3.333,0,0,0,3.333-3.333h0A3.335,3.335,0,0,0,603.15,3608.046Z"/>
      <path id="Path_486" data-name="Path 486" class="cls-14" d="M524.258,3604.782l-.015-5.247-18.294,5.8.752-3.691-14.867,6.443a3.334,3.334,0,0,0-2.008,3.068h0a3.334,3.334,0,0,0,3.343,3.324l12.66-.038,12.942-4.073.009,3.066a.97.97,0,0,0,1.886.315l1.708-4.93A5.242,5.242,0,0,0,524.258,3604.782Z"/>
      <path id="Path_487" data-name="Path 487" class="cls-1" d="M510.111,3417.087l-6.754,28.6a89.7,89.7,0,0,0-2.283,25.229l6.268,121.69H524.7l7.411-126.291,36.926,126.291h17.357l-30.561-175.52Z"/>
      <path id="Path_488" data-name="Path 488" class="cls-11" d="M533.077,3356.683c3.082,0,5.547-2.968,7.209-5.974H522.711C525.391,3353.707,529.062,3356.683,533.077,3356.683Z"/>
      <path id="Path_489" data-name="Path 489" class="cls-3" d="M565.962,3356.913a21.133,21.133,0,0,0-11.624-8.794l-11.648-3.547a21.963,21.963,0,0,1-2.4,6.137c-1.662,3.006-4.127,5.974-7.209,5.974-4.015,0-7.686-2.976-10.366-5.974a37.871,37.871,0,0,1-4.42-6.107l-12.1,5.607a18.028,18.028,0,0,0-9.917,12.008l-8.928,35.9,16.417,0,4.029-13.941,2.32,32.905h45.721l4.155-35.022,10.891,9.8,9.035-13.234Z"/>
      <path id="Path_490" data-name="Path 490" class="cls-7" d="M631.859,3343.323l-.7-.116-.108-.426a1.915,1.915,0,0,0-1.727-1.437l-9.761-.66-6.79-2.761,3.791-4.731a1.906,1.906,0,0,0-.2-2.6l-8,6.162a7.181,7.181,0,0,0-1.912,2.233l-2.2,4-.011-.013-33.371,48.881,4.585,4.189a7.731,7.731,0,0,0,12.133-2.257l21.681-43.461,7.9.751a13.719,13.719,0,0,0,5.279-.526l4.182-1.264a1.256,1.256,0,0,0,.8-1.681l2.979-.573a1.288,1.288,0,0,0,1.037-1.129l.05-.482h.183a1.06,1.06,0,0,0,1.06-1.06h0A1.06,1.06,0,0,0,631.859,3343.323Z"/>
      <path id="Path_491" data-name="Path 491" class="cls-18" d="M579.913,3378.627l-12.687,9.948,3.652,3.285Z"/>
      <g id="Group_170" data-name="Group 170">
        <path id="Path_492" data-name="Path 492" class="cls-11" d="M533.528,3360.959a14.991,14.991,0,0,1-7.688-2.3,27.473,27.473,0,0,1-6-5.01,41.291,41.291,0,0,1-5.345-7.287l.673-.312a40.551,40.551,0,0,0,5.231,7.1,26.724,26.724,0,0,0,5.835,4.867,14.245,14.245,0,0,0,7.3,2.189,9.16,9.16,0,0,0,6.079-2.255,15.312,15.312,0,0,0,3.715-5.035,28.488,28.488,0,0,0,2.336-7.447l.723.221a28.182,28.182,0,0,1-2.388,7.553,16.042,16.042,0,0,1-3.9,5.277A9.894,9.894,0,0,1,533.528,3360.959Z"/>
      </g>
      <circle id="Ellipse_63" data-name="Ellipse 63" class="cls-16" cx="8.308" cy="8.308" r="8.308" transform="translate(552.466 3497.581)"/>
      <circle id="Ellipse_64" data-name="Ellipse 64" class="cls-16" cx="8.308" cy="8.308" r="8.308" transform="translate(508.938 3497.581)"/>
      <path id="Path_493" data-name="Path 493" class="cls-18" d="M564.837,3355.325a5.309,5.309,0,0,1-7.912-6.23A21.147,21.147,0,0,1,564.837,3355.325Z"/>
      <path id="Path_494" data-name="Path 494" class="cls-18" d="M506.262,3353.9a5.306,5.306,0,0,1-8.45,4.274,18.02,18.02,0,0,1,7.382-7.468A5.283,5.283,0,0,1,506.262,3353.9Z"/>
      <rect id="Rectangle_174" data-name="Rectangle 174" class="cls-16" width="40.621" height="56.503" rx="1.242" transform="matrix(0.999, -0.038, 0.038, 0.999, 519.587, 3370.654)"/>
      <rect id="Rectangle_175" data-name="Rectangle 175" class="cls-16" width="40.621" height="56.503" rx="1.242" transform="matrix(0.994, 0.107, -0.107, 0.994, 527.673, 3367.85)"/>
      <path id="Path_495" data-name="Path 495" class="cls-7" d="M567.949,3402.7a2.677,2.677,0,0,0-.89-1.884l-.712-.637-.033-.337a2.579,2.579,0,0,0-2.441-2.321l-4.608-.226,2.428-3.749a1.072,1.072,0,0,0,.139-.849h0a1.072,1.072,0,0,0-1.61-.64l-13.124,8.279-43.336-2.209-16.418,0-1.978,7a8.035,8.035,0,0,0,8.564,10.176l53.168-5.538,15.119,2.324.674-.182a2.678,2.678,0,0,0,1.978-2.561l.009-.934.027-.012a2.677,2.677,0,0,0,1.583-2.526l-.017-.549.556-.482A2.677,2.677,0,0,0,567.949,3402.7Z"/>
      <path id="Path_496" data-name="Path 496" class="cls-12" d="M495.276,3410.647a5.5,5.5,0,0,1-2.609,4.679,8.051,8.051,0,0,1-7.6-7.531,5.5,5.5,0,0,1,10.2,2.852Z"/>
      <path id="Path_497" data-name="Path 497" class="cls-12" d="M586.552,3395.374a7.736,7.736,0,0,1-10.739.976,5.5,5.5,0,0,1,10.739-.976Z"/>
      <path id="Path_498" data-name="Path 498" class="cls-16" d="M524.919,3427s33.855,6.984,33.849,6.951l-1.048-6.021-14.883-1.607Z"/>
      <path id="Path_499" data-name="Path 499" class="cls-14" d="M524.178,3370.48l.113,28.689,3.112-28.811Z"/>
    </g>
  </g>
</svg>
